<svg width="74" height="15" viewBox="0 0 74 15" fill="none" xmlns="http://www.w3.org/2000/svg">
<path d="M4.85666 11.21C4.13332 11.21 3.47999 11.0863 2.89666 10.839C2.31799 10.587 1.83966 10.23 1.46166 9.768C1.08832 9.30133 0.845656 8.74833 0.733656 8.109L2.25966 7.878C2.41366 8.494 2.73566 8.97467 3.22566 9.32C3.71566 9.66067 4.28732 9.831 4.94066 9.831C5.34666 9.831 5.71999 9.768 6.06066 9.642C6.40132 9.51133 6.67432 9.327 6.87966 9.089C7.08966 8.84633 7.19466 8.557 7.19466 8.221C7.19466 8.039 7.16199 7.878 7.09666 7.738C7.03599 7.598 6.94966 7.47667 6.83766 7.374C6.73032 7.26667 6.59732 7.17567 6.43866 7.101C6.28466 7.02167 6.11432 6.954 5.92766 6.898L3.34466 6.135C3.09266 6.06033 2.83599 5.96467 2.57466 5.848C2.31332 5.72667 2.07299 5.57033 1.85366 5.379C1.63899 5.183 1.46399 4.94267 1.32866 4.658C1.19332 4.36867 1.12566 4.01867 1.12566 3.608C1.12566 2.98733 1.28432 2.46233 1.60166 2.033C1.92366 1.599 2.35766 1.27233 2.90366 1.053C3.44966 0.828999 4.06099 0.716999 4.73766 0.716999C5.41899 0.726333 6.02799 0.847666 6.56466 1.081C7.10599 1.31433 7.55399 1.65033 7.90866 2.089C8.26799 2.523 8.51532 3.05033 8.65066 3.671L7.08266 3.937C7.01266 3.559 6.86332 3.23467 6.63466 2.964C6.40599 2.68867 6.12599 2.47867 5.79466 2.334C5.46332 2.18467 5.10399 2.10767 4.71666 2.103C4.34332 2.09367 4.00032 2.14967 3.68766 2.271C3.37966 2.39233 3.13232 2.56267 2.94566 2.782C2.76366 3.00133 2.67266 3.25333 2.67266 3.538C2.67266 3.818 2.75432 4.04433 2.91766 4.217C3.08099 4.38967 3.28166 4.52733 3.51966 4.63C3.76232 4.728 4.00266 4.80967 4.24066 4.875L6.10266 5.4C6.33599 5.46533 6.59966 5.554 6.89366 5.666C7.19232 5.77333 7.47932 5.925 7.75466 6.121C8.03466 6.317 8.26566 6.57833 8.44766 6.905C8.62966 7.227 8.72066 7.633 8.72066 8.123C8.72066 8.63167 8.61799 9.07967 8.41266 9.467C8.20732 9.84967 7.92499 10.1717 7.56566 10.433C7.21099 10.6897 6.80032 10.8833 6.33366 11.014C5.86699 11.1447 5.37466 11.21 4.85666 11.21ZM10.3524 2.201V0.78H11.8154V2.201H10.3524ZM10.3524 11V3.44H11.8154V11H10.3524ZM17.0325 14.57C16.6265 14.57 16.2322 14.507 15.8495 14.381C15.4715 14.255 15.1262 14.0683 14.8135 13.821C14.5008 13.5783 14.2418 13.2773 14.0365 12.918L15.3875 12.232C15.5508 12.554 15.7842 12.7897 16.0875 12.939C16.3908 13.0883 16.7105 13.163 17.0465 13.163C17.4618 13.163 17.8165 13.0883 18.1105 12.939C18.4045 12.7943 18.6262 12.575 18.7755 12.281C18.9295 11.987 19.0042 11.623 18.9995 11.189V9.075H19.1745V3.44H20.4695V11.203C20.4695 11.4037 20.4625 11.595 20.4485 11.777C20.4345 11.959 20.4088 12.141 20.3715 12.323C20.2642 12.8317 20.0588 13.2517 19.7555 13.583C19.4568 13.9143 19.0742 14.1617 18.6075 14.325C18.1455 14.4883 17.6205 14.57 17.0325 14.57ZM16.9205 11.21C16.2158 11.21 15.6068 11.035 15.0935 10.685C14.5848 10.335 14.1905 9.859 13.9105 9.257C13.6352 8.65033 13.4975 7.969 13.4975 7.213C13.4975 6.45233 13.6375 5.77333 13.9175 5.176C14.1975 4.574 14.5942 4.10033 15.1075 3.755C15.6255 3.405 16.2392 3.23 16.9485 3.23C17.6625 3.23 18.2622 3.405 18.7475 3.755C19.2375 4.10033 19.6062 4.574 19.8535 5.176C20.1055 5.778 20.2315 6.457 20.2315 7.213C20.2315 7.969 20.1055 8.648 19.8535 9.25C19.6015 9.852 19.2305 10.3303 18.7405 10.685C18.2505 11.035 17.6438 11.21 16.9205 11.21ZM17.1235 9.887C17.6042 9.887 17.9962 9.77267 18.2995 9.544C18.6028 9.31533 18.8245 9.00033 18.9645 8.599C19.1045 8.19767 19.1745 7.73567 19.1745 7.213C19.1745 6.69033 19.1022 6.22833 18.9575 5.827C18.8175 5.42567 18.5982 5.113 18.2995 4.889C18.0055 4.665 17.6298 4.553 17.1725 4.553C16.6872 4.553 16.2882 4.672 15.9755 4.91C15.6628 5.148 15.4295 5.46767 15.2755 5.869C15.1262 6.27033 15.0515 6.71833 15.0515 7.213C15.0515 7.71233 15.1262 8.165 15.2755 8.571C15.4295 8.97233 15.6582 9.292 15.9615 9.53C16.2695 9.768 16.6568 9.887 17.1235 9.887ZM27.7411 11V7.283C27.7411 6.989 27.7154 6.688 27.6641 6.38C27.6174 6.06733 27.5241 5.778 27.3841 5.512C27.2487 5.246 27.0551 5.03133 26.8031 4.868C26.5557 4.70467 26.2314 4.623 25.8301 4.623C25.5687 4.623 25.3214 4.66733 25.0881 4.756C24.8547 4.84 24.6494 4.97767 24.4721 5.169C24.2994 5.36033 24.1617 5.61233 24.0591 5.925C23.9611 6.23767 23.9121 6.618 23.9121 7.066L23.0021 6.723C23.0021 6.037 23.1304 5.43267 23.3871 4.91C23.6437 4.38267 24.0124 3.972 24.4931 3.678C24.9737 3.384 25.5547 3.237 26.2361 3.237C26.7587 3.237 27.1974 3.321 27.5521 3.489C27.9067 3.657 28.1937 3.87867 28.4131 4.154C28.6371 4.42467 28.8074 4.721 28.9241 5.043C29.0407 5.365 29.1201 5.68 29.1621 5.988C29.2041 6.296 29.2251 6.56667 29.2251 6.8V11H27.7411ZM22.4281 11V3.44H23.7371V5.624H23.9121V11H22.4281ZM33.9911 2.201V0.78H35.4541V2.201H33.9911ZM33.9911 11V3.44H35.4541V11H33.9911ZM42.8622 11V7.283C42.8622 6.989 42.8365 6.688 42.7852 6.38C42.7385 6.06733 42.6452 5.778 42.5052 5.512C42.3698 5.246 42.1762 5.03133 41.9242 4.868C41.6768 4.70467 41.3525 4.623 40.9512 4.623C40.6898 4.623 40.4425 4.66733 40.2092 4.756C39.9758 4.84 39.7705 4.97767 39.5932 5.169C39.4205 5.36033 39.2828 5.61233 39.1802 5.925C39.0822 6.23767 39.0332 6.618 39.0332 7.066L38.1232 6.723C38.1232 6.037 38.2515 5.43267 38.5082 4.91C38.7648 4.38267 39.1335 3.972 39.6142 3.678C40.0948 3.384 40.6758 3.237 41.3572 3.237C41.8798 3.237 42.3185 3.321 42.6732 3.489C43.0278 3.657 43.3148 3.87867 43.5342 4.154C43.7582 4.42467 43.9285 4.721 44.0452 5.043C44.1618 5.365 44.2412 5.68 44.2832 5.988C44.3252 6.296 44.3462 6.56667 44.3462 6.8V11H42.8622ZM37.5492 11V3.44H38.8582V5.624H39.0332V11H37.5492ZM51.5202 0.92H52.9972L50.3092 11H48.8322L51.5202 0.92ZM60.4755 11.203C59.9528 11.203 59.5142 11.119 59.1595 10.951C58.8048 10.783 58.5155 10.5637 58.2915 10.293C58.0722 10.0177 57.9042 9.719 57.7875 9.397C57.6708 9.075 57.5915 8.76 57.5495 8.452C57.5075 8.144 57.4865 7.87333 57.4865 7.64V3.44H58.9705V7.157C58.9705 7.451 58.9938 7.75433 59.0405 8.067C59.0918 8.375 59.1852 8.662 59.3205 8.928C59.4605 9.194 59.6542 9.40867 59.9015 9.572C60.1535 9.73533 60.4802 9.817 60.8815 9.817C61.1428 9.817 61.3902 9.775 61.6235 9.691C61.8568 9.60233 62.0598 9.46233 62.2325 9.271C62.4098 9.07967 62.5475 8.82767 62.6455 8.515C62.7482 8.20233 62.7995 7.822 62.7995 7.374L63.7095 7.717C63.7095 8.403 63.5812 9.00967 63.3245 9.537C63.0678 10.0597 62.6992 10.468 62.2185 10.762C61.7378 11.056 61.1568 11.203 60.4755 11.203ZM62.9745 11V8.816H62.7995V3.44H64.2765V11H62.9745ZM69.7888 11.21C69.0654 11.21 68.4588 11.035 67.9688 10.685C67.4788 10.3303 67.1078 9.852 66.8558 9.25C66.6038 8.648 66.4778 7.969 66.4778 7.213C66.4778 6.457 66.6014 5.778 66.8488 5.176C67.1008 4.574 67.4694 4.10033 67.9548 3.755C68.4448 3.405 69.0468 3.23 69.7608 3.23C70.4701 3.23 71.0814 3.405 71.5948 3.755C72.1128 4.10033 72.5118 4.574 72.7918 5.176C73.0718 5.77333 73.2118 6.45233 73.2118 7.213C73.2118 7.969 73.0718 8.65033 72.7918 9.257C72.5164 9.859 72.1221 10.335 71.6088 10.685C71.1001 11.035 70.4934 11.21 69.7888 11.21ZM66.2328 14.36V3.44H67.5348V8.879H67.7028V14.36H66.2328ZM69.5858 9.887C70.0524 9.887 70.4374 9.768 70.7408 9.53C71.0488 9.292 71.2774 8.97233 71.4268 8.571C71.5808 8.165 71.6578 7.71233 71.6578 7.213C71.6578 6.71833 71.5808 6.27033 71.4268 5.869C71.2774 5.46767 71.0464 5.148 70.7338 4.91C70.4211 4.672 70.0221 4.553 69.5368 4.553C69.0794 4.553 68.7014 4.665 68.4028 4.889C68.1088 5.113 67.8894 5.42567 67.7448 5.827C67.6048 6.22833 67.5348 6.69033 67.5348 7.213C67.5348 7.73567 67.6048 8.19767 67.7448 8.599C67.8848 9.00033 68.1064 9.31533 68.4098 9.544C68.7131 9.77267 69.1051 9.887 69.5858 9.887Z" fill="white"/>
</svg>
